<?xml version="1.0" encoding="UTF-8" standalone="no"?>
<!-- Uploaded to: SVG Repo, www.svgrepo.com, Generator: SVG Repo Mixer Tools -->

<svg
   fill="#000000"
   width="800px"
   height="800px"
   viewBox="0 0 32 32"
   version="1.1"
   id="svg174"
   sodipodi:docname="ID_logo_hover.svg"
   inkscape:version="1.2.1 (9c6d41e, 2022-07-14)"
   xmlns:inkscape="http://www.inkscape.org/namespaces/inkscape"
   xmlns:sodipodi="http://sodipodi.sourceforge.net/DTD/sodipodi-0.dtd"
   xmlns="http://www.w3.org/2000/svg"
   xmlns:svg="http://www.w3.org/2000/svg">
  <defs
     id="defs178" />
  <sodipodi:namedview
     id="namedview176"
     pagecolor="#ffffff"
     bordercolor="#000000"
     borderopacity="0.25"
     inkscape:showpageshadow="2"
     inkscape:pageopacity="0.0"
     inkscape:pagecheckerboard="0"
     inkscape:deskcolor="#d1d1d1"
     showgrid="false"
     inkscape:zoom="0.295"
     inkscape:cx="122.0339"
     inkscape:cy="457.62712"
     inkscape:window-width="1470"
     inkscape:window-height="810"
     inkscape:window-x="0"
     inkscape:window-y="37"
     inkscape:window-maximized="0"
     inkscape:current-layer="svg174" />
  <path
     d="M16 0c-8.839 0-16 7.161-16 16s7.161 16 16 16c8.839 0 16-7.161 16-16s-7.161-16-16-16zM9.823 5.839c0.704 0 1.265 0.573 1.265 1.26 0 0.688-0.561 1.265-1.265 1.265-0.692-0.004-1.26-0.567-1.26-1.265 0-0.697 0.563-1.26 1.26-1.26zM8.864 9.885h1.923v13.391h-1.923zM13.615 9.885h5.197c4.948 0 7.125 3.541 7.125 6.703 0 3.439-2.687 6.699-7.099 6.699h-5.224zM15.536 11.625v9.927h3.063c4.365 0 5.365-3.312 5.365-4.964 0-2.687-1.713-4.963-5.464-4.963z"
     id="path172"
     style="fill:#5782e0;fill-opacity:1" />
</svg>
